 <svg id="Weldit" xmlns="http://www.w3.org/2000/svg" viewBox="0 0 455.72 147">
              <g id="Weldit_-_Mask" data-name="Weldit - Mask">
                <g id="Mask-w">
                  <polyline points="15.5 25.5 13.5 45.5 10.5 63.5 10.5 77.5 10.57 95.82 14.5 117.5 20.5 129.5 29.5 133.5 43.4 128.82 51.5 116.5 59.5 103.5 66.34 88.02 72.69 73.32 75.5 59.5 79.5 43.5 83.5 29.5 85.75 20.5 83.5 59.5 81.87 78.8 81.5 91.5 82.5 103.5 85.75 114.81 89.5 125.5 96.5 132.5 107.28 134.5 117.5 128.5 122.5 124.5 129.5 115.5 136.57 108.42 142.98 97.51 147.51 87.72 152.1 75 155.63 63.42 157.4 50.67 159.5 36.5 154.5 23.5 142.98 20.5 135.33 23.75 131.63 30.72 129.5 43.5 128.5 54.5 130.5 66.5 133.04 75 141.51 78.8 152.5 81.5 160.5 83.5 166.5 83.5 174.5 83.5 178.89 84.78" fill="none" stroke="#000" strokeLinecap="round" strokeLinejoin="round" strokeWidth="21" />
                </g>
                <g id="Mask-e">
                  <polyline points="179 118 197.05 113.75 209 107 214.93 95.82 212 83 200.81 78.8 191 83 183.85 90.72 179 101.75 176.81 110.37 181 125 187.53 132.81 200 136 212.81 136 226 129.98 237 119" fill="none" stroke="#000" strokeLinecap="round" strokeLinejoin="round" strokeWidth="18" />
                </g>
                <g id="Mask-l">
                  <polyline points="238 119 256.93 95.82 265 81 273.18 65.39 276.02 51.72 279 34 279 17.07 271 9 260.1 13.62 256 23 249.93 40.02 245.63 56.45 241.4 73.32 240.34 88.02 239.98 99.2 241.6 111.57 245 123 249.93 134.22 257 138 265 135 273.18 131.75 279 128.82" fill="none" stroke="#000" strokeLinecap="round" strokeLinejoin="round" strokeWidth="18" />
                </g>
                <g id="Mask-d">
                  <polyline points="321.7 78.12 309 81 297.87 88.02 289.75 99.2 285.16 110.37 285.16 123.63 290 132 294.77 134.93 304.98 134.93 313.39 128.82 321.7 116.57 330 101 345.51 70.62 353 45 355.07 28.34 353.63 16.92 347 9 338.1 12.27 331.98 22.34 327 44 324 62 321.7 90.1 321.7 105.98 325 125 330 132 338.45 134.93 346 133 354 127" fill="none" stroke="#000" strokeLinecap="round" strokeLinejoin="round" strokeWidth="18" />
                </g>
                <g id="Mask-i">
                  <g id="Mask-i-2" data-name="Mask-i">
                    <polyline points="359 118 365 106 367.37 92.57 370.22 78.12 366.69 113.75 367.37 125.39 367.37 132.1 370.22 135.98 375.7 135.98 379.67 133.51 387.16 128.82 394 125 399.35 116.13" fill="none" stroke="#000" strokeLinecap="round" strokeLinejoin="round" strokeWidth="18" />
                  </g>
                  <g id="Mask-i-dot">
                    <polyline points="375.7 51.72 375.7 54.81 379.67 51.72 377.69 45.28 370.22 45.28 368.81 50.67 368.81 56.45 377.63 56.45 383.28 50.67" fill="none" stroke="#000" strokeLinecap="round" strokeLinejoin="round" strokeWidth="12" />
                  </g>
                </g>
                <g id="Mask-t">
                  <g id="Mask-t-bottom">
                    <polyline points="411 81 421.75 73.32 430.92 63.42 437.98 50.67 443 38 443 26.67 439 19 430.92 19 425 23 421 29 418.37 34.69 415.39 40.02 413.28 48.35 411 56.45 408 66 408 75 407 85 407 93.28 407 102.1 409 112 411 126 417 134 423 137 436 134 425 134.22 432.34 134.22 439 130 443 124.34" fill="none" stroke="#000" strokeLinecap="round" strokeLinejoin="round" strokeWidth="19" />
                  </g>
                  <g id="Mask-t-top">
                    <polyline points="386.5 80.5 394.57 80.5 448.22 78" fill="none" stroke="#000" strokeLinecap="round" strokeLinejoin="round" strokeWidth="15" />
                  </g>
                </g>
              </g>
            </svg>